#!OML:ASF H:\Dans Jumps\Project 1\Capture day 1\Session 1\subject.ASF
:FULLY-SPECIFIED
:DEGREES
373
root -0.124263 21.8081 -6.87521 6.8821 2.21966 -0.840763
lowerback 4.52629 -0.454348 -1.53316
upperback 3.46013 -0.660684 1.79132
thorax 1.05797 -0.377371 2.72425
lowerneck -7.20786 -0.0397533 -2.60854
upperneck 25.686 0.173097 0.88366
head 9.23174 -0.0710816 0.768124
rclavicle -8.64713e-015 1.63003e-014
rhumerus -1.09774 -4.82138 -89.0358
rradius 31.9552
rwrist 27.6669
rhand -22.9786 -23.0303
rfingers 7.12502
rthumb 3.46378 -52.9819
lclavicle -8.64713e-015 1.63003e-014
lhumerus 4.39054 -12.419 89.933
lradius 29.4723
lwrist 20.8089
lhand -28.2839 -11.2851
lfingers 7.12502
lthumb -1.66011 18.6881
rfemur -21.1023 -4.61193 18.6891
rtibia 42.8876
rfoot 19.7457 -5.83195
rtoes 17.9947
lfemur -21.4604 3.77845 -15.4129
ltibia 36.4781
lfoot 25.2714 -1.45082
ltoes 2.29154
374
root -0.124925 21.8547 -6.72734 6.79189 2.26833 -0.971235
lowerback 4.68201 -0.488445 -1.43117
upperback 3.43629 -0.703553 1.82853
thorax 0.948236 -0.395912 2.70852
lowerneck -7.36986 -0.0139569 -2.54712
upperneck 25.9785 0.202097 0.889125
head 9.36507 -0.0534511 0.764315
rclavicle -1.2921e-014 2.44505e-014
rhumerus -1.47359 -4.82062 -89.0115
rradius 31.7303
rwrist 27.9361
rhand -22.9617 -23.0048
rfingers 7.12502
rthumb 3.48011 -52.9562
lclavicle -1.2921e-014 2.44505e-014
lhumerus 4.19484 -12.7925 90.0024
lradius 29.7293
lwrist 20.9501
lhand -28.208 -11.272
lfingers 7.12502
lthumb -1.58679 18.7019
rfemur -21.7458 -4.76432 18.8718
rtibia 42.5356
rfoot 19.0893 -5.75456
rtoes 17.4697
lfemur -22.0349 4.13692 -15.3979
ltibia 35.9735
lfoot 24.6412 -1.27883
ltoes 2.22566
375
root -0.1258 21.8881 -6.57889 6.74985 2.31349 -1.09197
lowerback 4.79558 -0.518012 -1.34225
upperback 3.40072 -0.740117 1.866
thorax 0.849696 -0.411635 2.69998
lowerneck -7.55356 0.0103435 -2.47222
upperneck 26.2746 0.230815 0.879617
head 9.50462 -0.0361214 0.753164
rclavicle -6.95746e-015 1.23246e-014
rhumerus -1.88883 -4.82099 -88.9587
rradius 31.5165
rwrist 28.1902
rhand -22.9435 -23.0024
rfingers 7.12502
rthumb 3.49762 -52.9535
lclavicle -6.95746e-015 1.23246e-014
lhumerus 4.01883 -13.1703 90.0692
lradius 29.917
lwrist 20.9812
lhand -28.1715 -11.258
lfingers 7.12502
lthumb -1.55154 18.7161
rfemur -22.4126 -4.88376 19.0403
rtibia 42.0386
rfoot 18.4815 -5.68603
rtoes 16.9158
lfemur -22.6714 4.50759 -15.4033
ltibia 35.4503
lfoot 24.052 -1.23917
ltoes 2.24062
376
root -0.126935 21.9084 -6.42934 6.71982 2.38988 -1.19034
lowerback 4.89307 -0.552079 -1.2731
upperback 3.36626 -0.782994 1.90051
thorax 0.761843 -0.431006 2.69973
lowerneck -7.74409 0.0309098 -2.38745
upperneck 26.5514 0.255007 0.860142
head 9.63951 -0.0207167 0.736367
rclavicle 2.18663e-015 5.96354e-015
rhumerus -2.33162 -4.83177 -88.8777
rradius 31.31
rwrist 28.3967
rhand -22.9122 -23.0178
rfingers 7.12502
rthumb 3.52791 -52.9684
lclavicle 2.18663e-015 5.96354e-015
lhumerus 3.86638 -13.5425 90.1377
lradius 30.0321
lwrist 20.9001
lhand -28.1474 -11.2421
lfingers 7.12502
lthumb -1.52824 18.7322
rfemur -23.0551 -4.99359 19.1803
rtibia 41.4093
rfoot 17.9281 -5.64532
rtoes 16.3687
lfemur -23.3285 4.85449 -15.4364
ltibia 34.9079
lfoot 23.4792 -1.33867
ltoes 2.2887
377
root -0.128208 21.916 -6.27834 6.68991 2.49562 -1.26168
lowerback 4.98363 -0.589116 -1.22719
upperback 3.33472 -0.830463 1.93042
thorax 0.681406 -0.453146 2.70805
lowerneck -7.92258 0.0456901 -2.29965
upperneck 26.7938 0.270415 0.838578
head 9.76065 -0.00892922 0.717197
rclavicle -1.54058e-014 -4.17448e-015
rhumerus -2.81049 -4.87052 -88.7712
rradius 31.1221
rwrist 28.5736
rhand -22.9124 -23.0086
rfingers 7.12502
rthumb 3.52771 -52.9592
lclavicle -1.54058e-014 -4.17448e-015
lhumerus 3.71277 -13.8929 90.2196
lradius 30.0983
lwrist 20.7171
lhand -28.1627 -11.2902
lfingers 7.12502
lthumb -1.54306 18.684
rfemur -23.658 -5.0988 19.2821
rtibia 40.6611
rfoot 17.4366 -5.63001
rtoes 15.881
lfemur -23.9863 5.17615 -15.5032
ltibia 34.3475
lfoot 22.898 -1.54823
ltoes 2.37096
378
root -0.130019 21.9108 -6.12602 6.64557 2.62523 -1.31094
lowerback 5.07423 -0.628406 -1.20835
upperback 3.31971 -0.881984 1.95882
thorax 0.618645 -0.478076 2.7303
lowerneck -8.10377 0.0573593 -2.21948
upperneck 26.9921 0.281254 0.822041
head 9.86702 0.000967125 0.700362
rclavicle -2.38542e-015 -1.39149e-014
rhumerus -3.30447 -4.94054 -88.6421
rradius 30.9474
rwrist 28.718
rhand -22.9295 -22.9668
rfingers 7.12502
rthumb 3.51115 -52.9176
lclavicle -2.38542e-015 -1.39149e-014
lhumerus 3.56959 -14.1999 90.3159
lradius 30.1269
lwrist 20.4801
lhand -28.1788 -11.3604
lfingers 7.12502
lthumb -1.55858 18.6137
rfemur -24.2082 -5.1909 19.3503
rtibia 39.8067
rfoot 17.0163 -5.64039
rtoes 15.4523
lfemur -24.6234 5.47447 -15.595
ltibia 33.7679
lfoot 22.2763 -1.84612
ltoes 2.41837
